<mxfile host="app.diagrams.net" modified="2023-05-08T15:24:37.849Z" agent="Mozilla/5.0 (Macintosh; Intel Mac OS X 10_15_7) AppleWebKit/537.36 (KHTML, like Gecko) Chrome/113.0.0.0 Safari/537.36" etag="6HVChwkeliO0QXrrBzOc" version="21.2.9" type="device">
  <diagram id="P3egCbBItE-vjyixLVVF" name="Page-1">
    <mxGraphModel dx="2714" dy="1434" grid="1" gridSize="10" guides="1" tooltips="1" connect="1" arrows="1" fold="1" page="1" pageScale="1" pageWidth="1100" pageHeight="850" math="0" shadow="0">
      <root>
        <mxCell id="0" />
        <mxCell id="1" parent="0" />
        <mxCell id="8yW3HtKEOS8D6HbiddwS-1" value="Experiment&lt;br&gt;Plan" style="sketch=0;pointerEvents=1;shadow=0;dashed=0;html=1;strokeColor=none;fillColor=#505050;labelPosition=center;verticalLabelPosition=bottom;verticalAlign=top;outlineConnect=0;align=center;shape=mxgraph.office.concepts.document;" parent="1" vertex="1">
          <mxGeometry x="210" y="280" width="30" height="40" as="geometry" />
        </mxCell>
        <mxCell id="8yW3HtKEOS8D6HbiddwS-2" value="Remote&lt;br&gt;Controller" style="rounded=1;whiteSpace=wrap;html=1;fillColor=#fff2cc;gradientColor=#ffd966;strokeColor=#d6b656;" parent="1" vertex="1">
          <mxGeometry x="320" y="280" width="80" height="40" as="geometry" />
        </mxCell>
        <mxCell id="8yW3HtKEOS8D6HbiddwS-9" value="" style="endArrow=classic;html=1;rounded=0;exitX=1;exitY=0.5;exitDx=0;exitDy=0;entryX=0;entryY=0.5;entryDx=0;entryDy=0;" parent="1" source="8yW3HtKEOS8D6HbiddwS-2" target="ZZdG2KbTojn6cw3QZEdF-2" edge="1">
          <mxGeometry width="50" height="50" relative="1" as="geometry">
            <mxPoint x="380" y="510" as="sourcePoint" />
            <mxPoint x="390" y="330" as="targetPoint" />
          </mxGeometry>
        </mxCell>
        <mxCell id="8yW3HtKEOS8D6HbiddwS-4" value="Test" style="ellipse;shape=cloud;whiteSpace=wrap;html=1;fillColor=#d5e8d4;gradientColor=#97d077;strokeColor=#82b366;" parent="1" vertex="1">
          <mxGeometry x="470" y="360" width="80" height="40" as="geometry" />
        </mxCell>
        <mxCell id="ZZdG2KbTojn6cw3QZEdF-1" value="Sensors" style="rounded=1;whiteSpace=wrap;html=1;fillColor=#fff2cc;gradientColor=#ffd966;strokeColor=#d6b656;" parent="1" vertex="1">
          <mxGeometry x="470" y="440" width="80" height="40" as="geometry" />
        </mxCell>
        <mxCell id="ZZdG2KbTojn6cw3QZEdF-2" value="Actuators" style="rounded=1;whiteSpace=wrap;html=1;fillColor=#fff2cc;gradientColor=#ffd966;strokeColor=#d6b656;" parent="1" vertex="1">
          <mxGeometry x="470" y="280" width="80" height="40" as="geometry" />
        </mxCell>
        <mxCell id="ZZdG2KbTojn6cw3QZEdF-3" value="" style="endArrow=classic;html=1;rounded=0;exitX=0.5;exitY=1;exitDx=0;exitDy=0;entryX=0.5;entryY=0;entryDx=0;entryDy=0;" parent="1" source="ZZdG2KbTojn6cw3QZEdF-2" target="8yW3HtKEOS8D6HbiddwS-4" edge="1">
          <mxGeometry width="50" height="50" relative="1" as="geometry">
            <mxPoint x="390" y="560" as="sourcePoint" />
            <mxPoint x="640" y="350" as="targetPoint" />
          </mxGeometry>
        </mxCell>
        <mxCell id="ZZdG2KbTojn6cw3QZEdF-7" value="Safety-Related&lt;br&gt;Feedback Only" style="endArrow=classic;html=1;rounded=0;exitX=0;exitY=0.75;exitDx=0;exitDy=0;entryX=0.25;entryY=1;entryDx=0;entryDy=0;dashed=1;" parent="1" source="ZZdG2KbTojn6cw3QZEdF-1" target="8yW3HtKEOS8D6HbiddwS-2" edge="1">
          <mxGeometry width="50" height="50" relative="1" as="geometry">
            <mxPoint x="360" y="440" as="sourcePoint" />
            <mxPoint x="450" y="520" as="targetPoint" />
            <Array as="points">
              <mxPoint x="340" y="470" />
            </Array>
          </mxGeometry>
        </mxCell>
        <mxCell id="ivcJ0Vw7QY5pCtP25yYA-1" value="&lt;br&gt;Local&lt;br&gt;Storage" style="strokeWidth=1;html=1;shape=mxgraph.flowchart.database;whiteSpace=wrap;labelBackgroundColor=none;fillColor=#fff2cc;gradientColor=#ffd966;strokeColor=#d6b656;" parent="1" vertex="1">
          <mxGeometry x="610" y="430" width="60" height="60" as="geometry" />
        </mxCell>
        <mxCell id="ivcJ0Vw7QY5pCtP25yYA-2" value="" style="shape=flexArrow;endArrow=classic;html=1;rounded=0;exitX=1;exitY=0.5;exitDx=0;exitDy=0;endSize=5;startSize=5;startArrow=block;" parent="1" source="ZZdG2KbTojn6cw3QZEdF-1" target="ivcJ0Vw7QY5pCtP25yYA-1" edge="1">
          <mxGeometry width="50" height="50" relative="1" as="geometry">
            <mxPoint x="330" y="550" as="sourcePoint" />
            <mxPoint x="610" y="510" as="targetPoint" />
          </mxGeometry>
        </mxCell>
        <mxCell id="ivcJ0Vw7QY5pCtP25yYA-6" value="" style="shape=flexArrow;endArrow=classic;html=1;rounded=0;exitX=0.5;exitY=1;exitDx=0;exitDy=0;entryX=0.5;entryY=0;entryDx=0;entryDy=0;endSize=5;startSize=5;" parent="1" source="8yW3HtKEOS8D6HbiddwS-4" target="ZZdG2KbTojn6cw3QZEdF-1" edge="1">
          <mxGeometry width="50" height="50" relative="1" as="geometry">
            <mxPoint x="480" y="450" as="sourcePoint" />
            <mxPoint x="440" y="411" as="targetPoint" />
          </mxGeometry>
        </mxCell>
        <mxCell id="ivcJ0Vw7QY5pCtP25yYA-10" value="" style="shape=flexArrow;endArrow=classic;html=1;rounded=0;endSize=5;startSize=5;entryX=0;entryY=0.5;entryDx=0;entryDy=0;" parent="1" target="8yW3HtKEOS8D6HbiddwS-2" edge="1">
          <mxGeometry width="50" height="50" relative="1" as="geometry">
            <mxPoint x="250" y="300" as="sourcePoint" />
            <mxPoint x="700" y="400" as="targetPoint" />
          </mxGeometry>
        </mxCell>
        <mxCell id="ivcJ0Vw7QY5pCtP25yYA-18" value="&lt;br&gt;Local&lt;br&gt;Storage" style="strokeWidth=1;html=1;shape=mxgraph.flowchart.database;whiteSpace=wrap;labelBackgroundColor=none;fillColor=#fff2cc;gradientColor=#ffd966;strokeColor=#d6b656;" parent="1" vertex="1">
          <mxGeometry x="330" y="160" width="60" height="60" as="geometry" />
        </mxCell>
        <mxCell id="ivcJ0Vw7QY5pCtP25yYA-19" value="" style="shape=flexArrow;endArrow=classic;html=1;rounded=0;startArrow=block;startSize=5;endSize=5;" parent="1" source="ivcJ0Vw7QY5pCtP25yYA-18" target="8yW3HtKEOS8D6HbiddwS-2" edge="1">
          <mxGeometry width="50" height="50" relative="1" as="geometry">
            <mxPoint x="370" y="490" as="sourcePoint" />
            <mxPoint x="370" y="530" as="targetPoint" />
          </mxGeometry>
        </mxCell>
        <mxCell id="ivcJ0Vw7QY5pCtP25yYA-21" value="Safety-Related&lt;br&gt;Feedback Only" style="shape=flexArrow;endArrow=classic;html=1;rounded=0;endSize=5;startSize=5;entryX=0.75;entryY=1;entryDx=0;entryDy=0;exitX=0;exitY=0.25;exitDx=0;exitDy=0;dashed=1;" parent="1" source="ZZdG2KbTojn6cw3QZEdF-1" target="8yW3HtKEOS8D6HbiddwS-2" edge="1">
          <mxGeometry width="50" height="50" relative="1" as="geometry">
            <mxPoint x="380" y="440" as="sourcePoint" />
            <mxPoint x="410" y="490" as="targetPoint" />
            <Array as="points">
              <mxPoint x="380" y="450" />
            </Array>
          </mxGeometry>
        </mxCell>
        <mxCell id="kjLaIn81PEr3xY-xgXpk-1" value="Raw&lt;br&gt;Experiment Result" style="sketch=0;pointerEvents=1;shadow=0;dashed=0;html=1;strokeColor=none;fillColor=#505050;labelPosition=center;verticalLabelPosition=bottom;verticalAlign=top;outlineConnect=0;align=center;shape=mxgraph.office.concepts.document;" parent="1" vertex="1">
          <mxGeometry x="750" y="440" width="30" height="40" as="geometry" />
        </mxCell>
        <mxCell id="kjLaIn81PEr3xY-xgXpk-2" value="" style="shape=flexArrow;endArrow=classic;html=1;rounded=0;endSize=5;startSize=5;entryX=0;entryY=0.5;entryDx=0;entryDy=0;" parent="1" edge="1">
          <mxGeometry width="50" height="50" relative="1" as="geometry">
            <mxPoint x="670" y="459.5" as="sourcePoint" />
            <mxPoint x="740" y="459.5" as="targetPoint" />
          </mxGeometry>
        </mxCell>
        <mxCell id="U0TGn-uc3VX7pNXmvMz7-1" value="Optional&lt;br&gt;Post-Processed&lt;br&gt;Experiment Result" style="sketch=0;pointerEvents=1;shadow=0;dashed=1;html=1;strokeColor=none;fillColor=#505050;labelPosition=center;verticalLabelPosition=bottom;verticalAlign=top;outlineConnect=0;align=center;shape=mxgraph.office.concepts.document;" parent="1" vertex="1">
          <mxGeometry x="750" y="280" width="30" height="40" as="geometry" />
        </mxCell>
        <mxCell id="U0TGn-uc3VX7pNXmvMz7-2" value="" style="shape=flexArrow;endArrow=classic;html=1;rounded=0;endSize=5;startSize=5;exitX=1;exitY=0.5;exitDx=0;exitDy=0;dashed=1;" parent="1" source="U0TGn-uc3VX7pNXmvMz7-3" edge="1">
          <mxGeometry width="50" height="50" relative="1" as="geometry">
            <mxPoint x="570" y="300" as="sourcePoint" />
            <mxPoint x="740" y="300" as="targetPoint" />
          </mxGeometry>
        </mxCell>
        <mxCell id="U0TGn-uc3VX7pNXmvMz7-3" value="Optional&lt;br&gt;Post-Processing" style="rounded=1;whiteSpace=wrap;html=1;dashed=1;fillColor=#f5f5f5;gradientColor=#b3b3b3;strokeColor=#666666;" parent="1" vertex="1">
          <mxGeometry x="590" y="280" width="100" height="40" as="geometry" />
        </mxCell>
        <mxCell id="U0TGn-uc3VX7pNXmvMz7-4" value="" style="shape=flexArrow;endArrow=classic;html=1;rounded=0;endSize=5;startSize=5;dashed=1;exitX=0.5;exitY=0;exitDx=0;exitDy=0;exitPerimeter=0;entryX=0.5;entryY=1;entryDx=0;entryDy=0;" parent="1" source="ivcJ0Vw7QY5pCtP25yYA-1" target="U0TGn-uc3VX7pNXmvMz7-3" edge="1">
          <mxGeometry width="50" height="50" relative="1" as="geometry">
            <mxPoint x="640" y="390" as="sourcePoint" />
            <mxPoint x="640" y="360" as="targetPoint" />
          </mxGeometry>
        </mxCell>
        <mxCell id="U0TGn-uc3VX7pNXmvMz7-5" value="&amp;nbsp;Control&amp;nbsp;" style="endArrow=classic;html=1;rounded=0;" parent="1" edge="1">
          <mxGeometry width="50" height="50" relative="1" as="geometry">
            <mxPoint x="200" y="459.5" as="sourcePoint" />
            <mxPoint x="270" y="460" as="targetPoint" />
          </mxGeometry>
        </mxCell>
        <mxCell id="U0TGn-uc3VX7pNXmvMz7-6" value="&amp;nbsp;Data&amp;nbsp;" style="shape=flexArrow;endArrow=classic;html=1;rounded=0;endSize=5;startSize=5;" parent="1" edge="1">
          <mxGeometry width="50" height="50" relative="1" as="geometry">
            <mxPoint x="200" y="489.5" as="sourcePoint" />
            <mxPoint x="270" y="490" as="targetPoint" />
          </mxGeometry>
        </mxCell>
      </root>
    </mxGraphModel>
  </diagram>
</mxfile>
